# xmcd CD database file
#
# Track frame offsets:
#	150
#	15813
#	27748
#	49202
#	62484
#	84058
#	103963
#	124485
#	141508
#	171398
#	189142
#	205316
#	222107
#	234937
#	254495
#	273958
#
# Disc length: 3936 seconds
#
# Revision: 0
# Processed by: cddbd v1.5.2PL0 Copyright (c) Steve Scherf et al.
# Submitted via: CDex 1.51
#
DISCID=e30f5e10
DTITLE=Joe Kienemann Trio - Pray Jazz
DYEAR=2010
DGENRE=Jazz
TTITLE0=When the Saints go marching in
TTITLE1=Wir wollen alle fröhlich sein
TTITLE2=Come Sunday
TTITLE3=In Dir ist Freude
TTITLE4=Veni Redemptor Gentium
TTITLE5=A Child is born
TTITLE6=Maria durch ein' Dornwald ging
TTITLE7=Auf dem Berge da gehet der Wind
TTITLE8=God bless the Child
TTITLE9=Gospelette
TTITLE10=Nun gehören unsre Herzen
TTITLE11=Erschienen ist der herrlich Tag
TTITLE12=Christ ist erstanden
TTITLE13=Imagine
TTITLE14=Where have all the flowers gone
TTITLE15=James
EXTD=YEAR: 2010
EXTT0=
EXTT1=
EXTT2=
EXTT3=
EXTT4=
EXTT5=
EXTT6=
EXTT7=
EXTT8=
EXTT9=
EXTT10=
EXTT11=
EXTT12=
EXTT13=
EXTT14=
EXTT15=
PLAYORDER=
